<!-- Generator: Adobe Illustrator 21.0.2, SVG Export Plug-In  -->
<svg version="1.1"
	 xmlns="http://www.w3.org/2000/svg" xmlns:xlink="http://www.w3.org/1999/xlink" xmlns:a="http://ns.adobe.com/AdobeSVGViewerExtensions/3.0/"
	 x="0px" y="0px" width="1233.5px" height="809.368px" viewBox="0 0 1233.5 809.368"
	 style="enable-background:new 0 0 1233.5 809.368;" xml:space="preserve">
<style type="text/css">
	.st0{fill:#EFEFEF;}
	.st1{fill:#FFFFFF;stroke:#FFFFFF;stroke-width:5;stroke-miterlimit:10;}
	.st2{fill:none;stroke:#FFFFFF;stroke-width:5;stroke-miterlimit:10;}
	.st3{fill:#999999;}
</style>
<defs>
</defs>
<rect x="0.5" class="st0" width="1231" height="770"/>
<line class="st1" x1="0.591" y1="99.5" x2="1233.5" y2="99.5"/>
<line class="st2" x1="1" y1="239.5" x2="1231" y2="239.5"/>
<line class="st2" x1="0" y1="360.5" x2="1231" y2="360.5"/>
<line class="st2" x1="0.591" y1="501.5" x2="1233.5" y2="501.5"/>
<line class="st2" x1="0.591" y1="633.5" x2="1233.5" y2="633.5"/>
<line class="st2" x1="194" y1="769.5" x2="194" y2="100"/>
<line class="st2" x1="377" y1="769.5" x2="377" y2="100"/>
<line class="st2" x1="548" y1="769.5" x2="548" y2="100"/>
<line class="st2" x1="726" y1="769.5" x2="726" y2="100"/>
<line class="st2" x1="897" y1="769.5" x2="897" y2="100"/>
<line class="st2" x1="1064" y1="769.5" x2="1064" y2="100"/>
<polygon class="st3" points="1213.816,786 1231.5,797.368 1213.816,809.368 "/>
<polygon class="st3" points="18.5,809.368 0.816,798 18.5,786 "/>
</svg>