<!-- Generator: Adobe Illustrator 21.0.2, SVG Export Plug-In  -->
<svg version="1.1"
	 xmlns="http://www.w3.org/2000/svg" xmlns:xlink="http://www.w3.org/1999/xlink" xmlns:a="http://ns.adobe.com/AdobeSVGViewerExtensions/3.0/"
	 x="0px" y="0px" width="602.311px" height="216.154px" viewBox="0 0 602.311 216.154"
	 style="enable-background:new 0 0 602.311 216.154;" xml:space="preserve">
<style type="text/css">
	.st0{opacity:0.73;}
	.st1{fill:#4D4D4D;}
	.st2{fill:#FFFFFF;}
	.st3{fill:#E4AE23;}
</style>
<defs>
</defs>
<g>
	<g class="st0">
		<g>
			<g>
				<g>
					<path class="st1" d="M278.823,43.865c10.225,0,14.361,4.366,14.361,13.786s-4.136,13.786-14.361,13.786h-2.757
						c-1.091,0-1.724,0.574-1.724,1.724v9.191c0,1.148-0.574,1.723-1.723,1.723h-6.434c-1.091,0-1.723-0.632-1.723-1.723V45.646
						c0-1.149,0.574-1.723,1.723-1.781H278.823z M279.168,61.558c2.757,0,4.136-0.344,4.136-3.906c0-3.562-1.379-3.906-4.136-3.906
						h-3.102c-1.091,0-1.724,0.575-1.724,1.723v4.366c0,1.091,0.632,1.723,1.724,1.723H279.168z"/>
				</g>
				<g>
					<path class="st1" d="M324.601,82.122c0,1.264-0.574,1.953-1.723,1.953h-6.434c-1.091,0-1.724-0.575-1.724-1.723v-4.998
						c0-1.149-0.574-1.723-1.723-1.723h-4.94c-1.091,0-1.723,0.574-1.723,1.723v4.998c0,1.148-0.575,1.723-1.724,1.723h-6.434
						c-1.091,0-1.723-0.689-1.723-1.953V57.766c0-7.238,1.149-14.935,14.073-14.935c12.925,0,14.074,7.697,14.074,14.935V82.122z
						 M314.721,57.766c0-2.757-0.402-4.136-4.193-4.136c-3.791,0-4.193,1.379-4.193,4.136v6.261c0,1.091,0.632,1.724,1.723,1.724
						h4.94c1.149-0.058,1.723-0.632,1.723-1.781V57.766z"/>
				</g>
				<g>
					<path class="st1" d="M358.311,80.974c0.804,1.493-0.115,3.102-1.896,3.102h-6.549c-0.574,0-1.091-0.287-1.321-0.804
						l-5.974-11.546c-0.115-0.173-0.287-0.287-0.46-0.287h-2.298c-1.034,0-1.781,0.747-1.781,1.781v9.076
						c0,1.034-0.747,1.781-1.781,1.781h-6.434c-1.034,0-1.781-0.747-1.781-1.781V45.646c0-1.034,0.746-1.781,1.781-1.781h12.58
						c10.225,0,14.361,4.366,14.361,13.786c0,5.342-1.321,9.076-4.365,11.259c-0.23,0.172-0.287,0.46-0.173,0.747L358.311,80.974z
						 M339.814,53.745c-1.034,0-1.781,0.747-1.781,1.781v4.251c0,1.034,0.747,1.781,1.781,1.781h2.93
						c2.757,0,4.136-0.344,4.136-3.906c0-3.562-1.379-3.906-4.136-3.906H339.814z"/>
				</g>
				<g>
					<path class="st1" d="M393.751,82.007c0.804,1.149,0.287,2.068-1.091,2.068h-8.617c-0.919,0-1.551-0.344-2.068-1.149
						l-7.123-10.914c-0.23-0.344-0.574-0.344-0.804,0l-2.355,3.217c-0.172,0.23-0.23,0.46-0.23,0.747v6.377
						c0,1.091-0.574,1.723-1.724,1.723h-6.548c-1.091,0-1.724-0.632-1.724-1.723V45.589c0-1.149,0.632-1.724,1.724-1.724h6.548
						c1.149,0,1.724,0.574,1.724,1.724v11.546c0,0.575,0.402,0.689,0.689,0.23l9.019-12.408c0.517-0.746,1.149-1.091,2.068-1.091
						h8.502c1.436,0,1.895,0.919,1.091,2.126L381.228,61.96c-0.172,0.287-0.229,0.517,0,0.804L393.751,82.007z"/>
				</g>
				<g>
					<path class="st1" d="M435.035,82.122c0,1.264-0.575,1.953-1.724,1.953h-6.434c-1.091,0-1.723-0.575-1.723-1.723v-4.998
						c0-1.149-0.575-1.723-1.723-1.723h-4.94c-1.092,0-1.724,0.574-1.724,1.723v4.998c0,1.148-0.574,1.723-1.723,1.723h-6.434
						c-1.091,0-1.723-0.689-1.723-1.953V57.766c0-7.238,1.148-14.935,14.074-14.935c12.924,0,14.074,7.697,14.074,14.935V82.122z
						 M425.154,57.766c0-2.757-0.402-4.136-4.193-4.136c-3.792,0-4.194,1.379-4.194,4.136v6.261c0,1.091,0.632,1.724,1.724,1.724
						h4.94c1.148-0.058,1.723-0.632,1.723-1.781V57.766z"/>
				</g>
				<g>
					<path class="st1" d="M445.019,43.865c1.034,0,1.666,0.517,1.895,1.493l5.056,22.058c0.114,0.517,0.574,0.517,0.689,0
						l5.055-22.058c0.229-0.976,0.862-1.493,1.895-1.493h6.836c1.206,0,1.781,0.689,1.494,1.896l-8.387,36.821
						c-0.229,0.977-0.862,1.494-1.895,1.494h-10.685c-1.034,0-1.666-0.517-1.896-1.494l-8.386-36.821
						c-0.287-1.206,0.287-1.896,1.494-1.896H445.019z"/>
				</g>
				<g>
					<path class="st1" d="M496.935,43.865c1.148,0,1.723,0.574,1.723,1.724v6.434c0,1.091-0.575,1.723-1.723,1.723h-13.901
						c-1.091,0-1.723,0.575-1.723,1.723v1.838c0,1.092,0.632,1.724,1.723,1.724h8.904c1.148,0,1.723,0.574,1.723,1.724v6.434
						c0,1.091-0.575,1.723-1.723,1.723h-8.904c-1.091,0-1.723,0.575-1.723,1.723v1.838c0,1.092,0.632,1.724,1.723,1.724h13.901
						c1.148,0,1.723,0.574,1.723,1.724v6.434c0,1.148-0.575,1.723-1.723,1.723h-24.127c-1.091,0-1.723-0.632-1.723-1.723V45.589
						c0-1.149,0.632-1.724,1.723-1.724H496.935z"/>
				</g>
			</g>
			<g>
				<g>
					<path class="st1" d="M264.897,112.372c0-3.791,0.804-13.959,14.418-13.959c12.236,0,14.131,8.214,14.361,12.637
						c0.057,0.804-0.46,1.436-1.264,1.609l-6.376,1.436c-1.206,0.23-2.126-0.574-2.298-1.781c-0.287-2.527-1.321-4.021-4.423-4.021
						c-4.251,0-4.538,2.7-4.538,7.123v8.272c0,4.423,0.287,7.122,4.538,7.122c3.16,0,4.021-1.493,4.366-4.136
						c0.173-1.206,1.092-1.953,2.24-1.665l6.491,1.436c0.804,0.172,1.321,0.804,1.264,1.665c-0.23,4.366-2.126,12.58-14.361,12.58
						c-13.614,0-14.418-10.168-14.418-13.959V112.372z"/>
				</g>
				<g>
					<path class="st1" d="M312.168,98.528c10.799,0,14.361,4.604,14.361,14.539v13.267c0,9.935-3.562,14.6-14.361,14.6h-12.81
						c-1.091,0-1.723-0.666-1.723-1.817v-38.711c0-1.212,0.574-1.817,1.723-1.878H312.168z M312.341,130.515
						c2.757,0,4.136-0.485,4.136-4.119c0-0.061,0-13.267,0-13.328c0-3.756-1.379-4.119-4.136-4.119h-3.102
						c-1.091,0-1.724,0.606-1.724,1.817v17.932c0,1.151,0.632,1.818,1.724,1.818H312.341z"/>
				</g>
				<g>
					<path class="st1" d="M337.204,99.447c1.149,0,1.723,0.574,1.723,1.724v6.434c0,4.193-1.838,7.525-6.261,7.984
						c-0.747,0.057-1.034-0.632-0.517-1.264c1.551-1.838,1.781-3.274,1.838-4.423c0-0.345-0.23-0.575-0.575-0.575h-2.642
						c-1.091,0-1.723-0.632-1.723-1.723v-6.434c0-1.149,0.632-1.724,1.723-1.724H337.204z"/>
				</g>
				<g>
					<path class="st1" d="M362.044,113.693c-1.149,0.23-1.723-0.287-1.895-1.436c-0.402-2.355-2.298-3.849-4.998-3.849
						c-2.24,0-3.619,1.321-3.389,2.642c0.804,4.481,18.956,4.366,18.956,17.578c0,1.723-1.953,11.891-15.567,11.891
						c-12.063,0-14.648-7.927-14.935-12.408c-0.058-1.034,0.46-1.665,1.494-1.896l6.491-1.436c1.148-0.23,1.781,0.287,1.895,1.493
						c0.23,2.757,2.355,4.366,5.055,4.366c2.815,0,4.883-1.666,4.538-3.217c-1.092-4.883-18.382-3.791-18.382-17.003
						c-0.058-1.723,0.976-11.891,13.843-11.891c11.834,0,14.591,7.698,14.935,11.834c0.058,1.034-0.46,1.665-1.493,1.895
						L362.044,113.693z"/>
				</g>
				<g>
				</g>
			</g>
		</g>
		<g>
			<g>
				<g>
					<g>
						<path class="st1" d="M236.964,23.48c-1.814-6.987-4.277-13.732-7.701-20.11c-0.411-0.765-0.907-1.034-1.734-0.989
							c-3.103,0.167-6.22,0.178-9.311,0.464c-8.334,0.771-16.407,2.7-24.161,5.871c-9.36,3.829-17.615,9.268-24.212,17.018
							c-6.66,7.823-11.053,16.862-13.902,26.671c-2.545,8.764-3.318,17.698-2.143,26.77c0.223,1.718,0.546,3.423,0.831,5.189
							c-0.252-0.023-0.424-0.029-0.592-0.057c-6.237-1.038-12.477-2.065-18.708-3.137c-0.77-0.132-1.176,0.026-1.589,0.714
							c-4.012,6.687-8.066,13.348-12.106,20.019c-2.008,3.315-4.011,6.634-6.037,9.986c0.213,0.162,0.365,0.302,0.539,0.407
							c6.91,4.183,13.818,8.37,20.745,12.525c0.378,0.227,0.922,0.295,1.376,0.26c5.547-0.427,11.091-0.887,16.636-1.339l1.101-0.09
							c0.158,0.359,0.274,0.612,0.383,0.869c2.201,5.176,4.389,10.357,6.619,15.52c0.204,0.473,0.596,0.959,1.031,1.225
							c6.637,4.054,13.294,8.073,19.949,12.098c0.916-0.79,1.882-1.522,2.891-2.188c5.398-8.918,10.785-17.843,16.222-26.737
							c0.597-0.977,0.626-1.577-0.103-2.519c-3.914-5.057-7.736-10.185-11.669-15.393c0.287-0.119,0.475-0.214,0.673-0.277
							c15.455-4.909,27.669-14.172,36.919-27.435c6.92-9.922,10.375-20.967,10.716-33.016
							C239.843,38.232,238.863,30.794,236.964,23.48z M232.621,56.116c-1.785,8.565-5.67,16.114-11.067,22.923
							c-8.217,10.367-18.568,17.706-31.23,21.638c-2.587,0.804-5.32,1.139-7.985,1.69c-0.364,0.075-0.73,0.145-1.235,0.245
							c2.052,2.72,4.004,5.31,5.958,7.899c3.096,4.101,6.189,8.205,9.297,12.297c0.326,0.429,0.476,0.751,0.147,1.291
							c-4.387,7.197-8.747,14.409-13.116,21.617c-0.053,0.088-0.124,0.166-0.228,0.304c-0.237-0.116-0.487-0.215-0.714-0.352
							c-4.61-2.786-9.224-5.564-13.812-8.384c-0.437-0.268-0.836-0.749-1.04-1.222c-2.53-5.871-5.033-11.753-7.501-17.65
							c-0.281-0.671-0.591-0.858-1.306-0.796c-6.206,0.536-12.417,1.014-18.622,1.55c-0.917,0.079-1.674-0.079-2.466-0.566
							c-4.676-2.874-9.382-5.701-14.181-8.606c3.256-5.378,6.462-10.672,9.668-15.966c1.16-1.914,2.352-3.81,3.466-5.75
							c0.387-0.674,0.751-0.891,1.565-0.752c8.162,1.394,16.332,2.733,24.501,4.086c0.135,0.022,0.273,0.031,0.579,0.065
							c-0.372-0.976-0.681-1.873-1.053-2.743c-2.65-6.214-3.335-12.769-3.152-19.419c0.352-12.778,4.43-24.403,11.389-35.037
							c5.925-9.054,14.199-15.325,24.006-19.655c9.489-4.189,19.481-6.195,29.81-6.683c0.786-0.037,1.101,0.319,1.392,0.95
							c3.457,7.498,5.962,15.286,7.245,23.457C234.173,40.423,234.255,48.276,232.621,56.116z"/>
					</g>
				</g>
			</g>
			<g>
				<g>
					<path class="st1" d="M166.345,79.993c-0.848,0-1.592-0.618-1.726-1.482c-1.255-8.121-0.7-16.579,1.604-24.462
						c2.276-7.786,6.297-15.136,11.629-21.253c0.634-0.728,1.739-0.804,2.467-0.169c0.728,0.635,0.804,1.739,0.169,2.467
						c-5.002,5.739-8.774,12.633-10.909,19.937c-2.161,7.394-2.681,15.329-1.504,22.947c0.147,0.954-0.507,1.848-1.461,1.995
						C166.523,79.986,166.433,79.993,166.345,79.993z"/>
				</g>
			</g>
			<g>
				<g>
					<path class="st1" d="M167.675,83.212c-2.233,0-2.236,3.47,0,3.47C169.908,86.682,169.911,83.212,167.675,83.212z"/>
				</g>
			</g>
		</g>
	</g>
	<g>
		<g>
			<g>
				<g>
					<path class="st2" d="M275.823,41.865c10.225,0,14.361,4.366,14.361,13.786s-4.136,13.786-14.361,13.786h-2.757
						c-1.091,0-1.724,0.574-1.724,1.724v9.191c0,1.148-0.574,1.723-1.723,1.723h-6.434c-1.091,0-1.723-0.632-1.723-1.723V43.646
						c0-1.149,0.574-1.723,1.723-1.781H275.823z M276.168,59.558c2.757,0,4.136-0.344,4.136-3.906c0-3.562-1.379-3.906-4.136-3.906
						h-3.102c-1.091,0-1.724,0.575-1.724,1.723v4.366c0,1.091,0.632,1.723,1.724,1.723H276.168z"/>
				</g>
				<g>
					<path class="st2" d="M321.601,80.122c0,1.264-0.574,1.953-1.723,1.953h-6.434c-1.091,0-1.724-0.575-1.724-1.723v-4.998
						c0-1.149-0.574-1.723-1.723-1.723h-4.94c-1.091,0-1.723,0.574-1.723,1.723v4.998c0,1.148-0.575,1.723-1.724,1.723h-6.434
						c-1.091,0-1.723-0.689-1.723-1.953V55.766c0-7.238,1.149-14.935,14.073-14.935c12.925,0,14.074,7.697,14.074,14.935V80.122z
						 M311.721,55.766c0-2.757-0.402-4.136-4.193-4.136c-3.791,0-4.193,1.379-4.193,4.136v6.261c0,1.091,0.632,1.724,1.723,1.724
						h4.94c1.149-0.058,1.723-0.632,1.723-1.781V55.766z"/>
				</g>
				<g>
					<path class="st2" d="M355.311,78.974c0.804,1.493-0.115,3.102-1.896,3.102h-6.549c-0.574,0-1.091-0.287-1.321-0.804
						l-5.974-11.546c-0.115-0.173-0.287-0.287-0.46-0.287h-2.298c-1.034,0-1.781,0.747-1.781,1.781v9.076
						c0,1.034-0.747,1.781-1.781,1.781h-6.434c-1.034,0-1.781-0.747-1.781-1.781V43.646c0-1.034,0.746-1.781,1.781-1.781h12.58
						c10.225,0,14.361,4.366,14.361,13.786c0,5.342-1.321,9.076-4.365,11.259c-0.23,0.172-0.287,0.46-0.173,0.747L355.311,78.974z
						 M336.814,51.745c-1.034,0-1.781,0.747-1.781,1.781v4.251c0,1.034,0.747,1.781,1.781,1.781h2.93
						c2.757,0,4.136-0.344,4.136-3.906c0-3.562-1.379-3.906-4.136-3.906H336.814z"/>
				</g>
				<g>
					<path class="st2" d="M390.751,80.007c0.804,1.149,0.287,2.068-1.091,2.068h-8.617c-0.919,0-1.551-0.344-2.068-1.149
						l-7.123-10.914c-0.23-0.344-0.574-0.344-0.804,0l-2.355,3.217c-0.172,0.23-0.23,0.46-0.23,0.747v6.377
						c0,1.091-0.574,1.723-1.724,1.723h-6.548c-1.091,0-1.724-0.632-1.724-1.723V43.589c0-1.149,0.632-1.724,1.724-1.724h6.548
						c1.149,0,1.724,0.574,1.724,1.724v11.546c0,0.575,0.402,0.689,0.689,0.23l9.019-12.408c0.517-0.746,1.149-1.091,2.068-1.091
						h8.502c1.436,0,1.895,0.919,1.091,2.126L378.228,59.96c-0.172,0.287-0.229,0.517,0,0.804L390.751,80.007z"/>
				</g>
				<g>
					<path class="st2" d="M432.035,80.122c0,1.264-0.575,1.953-1.724,1.953h-6.434c-1.091,0-1.723-0.575-1.723-1.723v-4.998
						c0-1.149-0.575-1.723-1.723-1.723h-4.94c-1.092,0-1.724,0.574-1.724,1.723v4.998c0,1.148-0.574,1.723-1.723,1.723h-6.434
						c-1.091,0-1.723-0.689-1.723-1.953V55.766c0-7.238,1.148-14.935,14.074-14.935c12.924,0,14.074,7.697,14.074,14.935V80.122z
						 M422.154,55.766c0-2.757-0.402-4.136-4.193-4.136c-3.792,0-4.194,1.379-4.194,4.136v6.261c0,1.091,0.632,1.724,1.724,1.724
						h4.94c1.148-0.058,1.723-0.632,1.723-1.781V55.766z"/>
				</g>
				<g>
					<path class="st2" d="M442.019,41.865c1.034,0,1.666,0.517,1.895,1.493l5.056,22.058c0.114,0.517,0.574,0.517,0.689,0
						l5.055-22.058c0.229-0.976,0.862-1.493,1.895-1.493h6.836c1.206,0,1.781,0.689,1.494,1.896l-8.387,36.821
						c-0.229,0.977-0.862,1.494-1.895,1.494h-10.685c-1.034,0-1.666-0.517-1.896-1.494l-8.386-36.821
						c-0.287-1.206,0.287-1.896,1.494-1.896H442.019z"/>
				</g>
				<g>
					<path class="st2" d="M493.935,41.865c1.148,0,1.723,0.574,1.723,1.724v6.434c0,1.091-0.575,1.723-1.723,1.723h-13.901
						c-1.091,0-1.723,0.575-1.723,1.723v1.838c0,1.092,0.632,1.724,1.723,1.724h8.904c1.148,0,1.723,0.574,1.723,1.724v6.434
						c0,1.091-0.575,1.723-1.723,1.723h-8.904c-1.091,0-1.723,0.575-1.723,1.723v1.838c0,1.092,0.632,1.724,1.723,1.724h13.901
						c1.148,0,1.723,0.574,1.723,1.724v6.434c0,1.148-0.575,1.723-1.723,1.723h-24.127c-1.091,0-1.723-0.632-1.723-1.723V43.589
						c0-1.149,0.632-1.724,1.723-1.724H493.935z"/>
				</g>
			</g>
			<g>
				<g>
					<path class="st2" d="M261.897,110.372c0-3.791,0.804-13.959,14.418-13.959c12.236,0,14.131,8.214,14.361,12.637
						c0.057,0.804-0.46,1.436-1.264,1.609l-6.376,1.436c-1.206,0.23-2.126-0.574-2.298-1.781c-0.287-2.527-1.321-4.021-4.423-4.021
						c-4.251,0-4.538,2.7-4.538,7.123v8.272c0,4.423,0.287,7.122,4.538,7.122c3.16,0,4.021-1.493,4.366-4.136
						c0.173-1.206,1.092-1.953,2.24-1.665l6.491,1.436c0.804,0.172,1.321,0.804,1.264,1.665c-0.23,4.366-2.126,12.58-14.361,12.58
						c-13.614,0-14.418-10.168-14.418-13.959V110.372z"/>
				</g>
				<g>
					<path class="st2" d="M309.168,96.528c10.799,0,14.361,4.604,14.361,14.539v13.267c0,9.935-3.562,14.6-14.361,14.6h-12.81
						c-1.091,0-1.723-0.666-1.723-1.817V98.406c0-1.212,0.574-1.817,1.723-1.878H309.168z M309.341,128.515
						c2.757,0,4.136-0.485,4.136-4.119c0-0.061,0-13.267,0-13.328c0-3.756-1.379-4.119-4.136-4.119h-3.102
						c-1.091,0-1.724,0.606-1.724,1.817v17.932c0,1.151,0.632,1.818,1.724,1.818H309.341z"/>
				</g>
				<g>
					<path class="st2" d="M334.204,97.447c1.149,0,1.723,0.574,1.723,1.724v6.434c0,4.193-1.838,7.525-6.261,7.984
						c-0.747,0.057-1.034-0.632-0.517-1.264c1.551-1.838,1.781-3.274,1.838-4.423c0-0.345-0.23-0.575-0.575-0.575h-2.642
						c-1.091,0-1.723-0.632-1.723-1.723v-6.434c0-1.149,0.632-1.724,1.723-1.724H334.204z"/>
				</g>
				<g>
					<path class="st2" d="M359.044,111.693c-1.149,0.23-1.723-0.287-1.895-1.436c-0.402-2.355-2.298-3.849-4.998-3.849
						c-2.24,0-3.619,1.321-3.389,2.642c0.804,4.481,18.956,4.366,18.956,17.578c0,1.723-1.953,11.891-15.567,11.891
						c-12.063,0-14.648-7.927-14.935-12.408c-0.058-1.034,0.46-1.665,1.494-1.896l6.491-1.436c1.148-0.23,1.781,0.287,1.895,1.493
						c0.23,2.757,2.355,4.366,5.055,4.366c2.815,0,4.883-1.666,4.538-3.217c-1.092-4.883-18.382-3.791-18.382-17.003
						c-0.058-1.723,0.976-11.891,13.843-11.891c11.834,0,14.591,7.698,14.935,11.834c0.058,1.034-0.46,1.665-1.493,1.895
						L359.044,111.693z"/>
				</g>
				<g>
				</g>
			</g>
		</g>
		<g>
			<g>
				<g>
					<g>
						<path class="st3" d="M233.964,21.48c-1.814-6.987-4.277-13.732-7.701-20.11c-0.411-0.765-0.907-1.034-1.734-0.989
							c-3.103,0.167-6.22,0.178-9.311,0.464c-8.334,0.771-16.407,2.7-24.161,5.871c-9.36,3.829-17.615,9.268-24.212,17.018
							c-6.66,7.823-11.053,16.862-13.902,26.671c-2.545,8.764-3.318,17.698-2.143,26.77c0.223,1.718,0.546,3.423,0.831,5.189
							c-0.252-0.023-0.424-0.029-0.592-0.057c-6.237-1.038-12.477-2.065-18.708-3.137c-0.77-0.132-1.176,0.026-1.589,0.714
							c-4.012,6.687-8.066,13.348-12.106,20.019c-2.008,3.315-4.011,6.634-6.037,9.986c0.213,0.162,0.365,0.302,0.539,0.407
							c6.91,4.183,13.818,8.37,20.745,12.525c0.378,0.227,0.922,0.295,1.376,0.26c5.547-0.427,11.091-0.887,16.636-1.339l1.101-0.09
							c0.158,0.359,0.274,0.612,0.383,0.869c2.201,5.176,4.389,10.357,6.619,15.52c0.204,0.473,0.596,0.959,1.031,1.225
							c6.637,4.054,13.294,8.073,19.949,12.098c0.916-0.79,1.882-1.522,2.891-2.188c5.398-8.918,10.785-17.843,16.222-26.737
							c0.597-0.977,0.626-1.577-0.103-2.519c-3.914-5.057-7.736-10.185-11.669-15.393c0.287-0.119,0.475-0.214,0.673-0.277
							c15.455-4.909,27.669-14.172,36.919-27.435c6.92-9.922,10.375-20.967,10.716-33.016
							C236.843,36.232,235.863,28.794,233.964,21.48z M229.621,54.116c-1.785,8.565-5.67,16.114-11.067,22.923
							c-8.217,10.367-18.568,17.706-31.23,21.638c-2.587,0.804-5.32,1.139-7.985,1.69c-0.364,0.075-0.73,0.145-1.235,0.245
							c2.052,2.72,4.004,5.31,5.958,7.899c3.096,4.101,6.189,8.205,9.297,12.297c0.326,0.429,0.476,0.751,0.147,1.291
							c-4.387,7.197-8.747,14.409-13.116,21.617c-0.053,0.088-0.124,0.166-0.228,0.304c-0.237-0.116-0.487-0.215-0.714-0.352
							c-4.61-2.786-9.224-5.564-13.812-8.384c-0.437-0.268-0.836-0.749-1.04-1.222c-2.53-5.871-5.033-11.753-7.501-17.65
							c-0.281-0.671-0.591-0.858-1.306-0.796c-6.206,0.536-12.417,1.014-18.622,1.55c-0.917,0.079-1.674-0.079-2.466-0.566
							c-4.676-2.874-9.382-5.701-14.181-8.606c3.256-5.378,6.462-10.672,9.668-15.966c1.16-1.914,2.352-3.81,3.466-5.75
							c0.387-0.674,0.751-0.891,1.565-0.752c8.162,1.394,16.332,2.733,24.501,4.086c0.135,0.022,0.273,0.031,0.579,0.065
							c-0.372-0.976-0.681-1.873-1.053-2.743c-2.65-6.214-3.335-12.769-3.152-19.419c0.352-12.778,4.43-24.403,11.389-35.037
							c5.925-9.054,14.199-15.325,24.006-19.655c9.489-4.189,19.481-6.195,29.81-6.683c0.786-0.037,1.101,0.319,1.392,0.95
							c3.457,7.498,5.962,15.286,7.245,23.457C231.173,38.423,231.255,46.276,229.621,54.116z"/>
						<path class="st3" d="M181.018,151.827l-2.692-1.628c-5.836-3.529-11.672-7.057-17.491-10.612
							c-0.483-0.294-0.935-0.83-1.18-1.396c-1.729-4.002-3.432-8.015-5.136-12.028l-1.757-4.115l-4.195,0.342
							c-4.426,0.362-8.851,0.724-13.279,1.065c-0.602,0.045-1.194-0.072-1.597-0.312c-6.273-3.764-12.531-7.553-18.79-11.342
							l-1.957-1.185c-0.128-0.078-0.247-0.171-0.38-0.279l-0.459-0.355l9.337-15.432c3-4.949,6.001-9.897,8.979-14.86
							c0.482-0.802,1.034-1.053,1.974-0.891c4.954,0.852,9.912,1.675,14.87,2.499l3.836,0.637c0.027,0.005,0.055,0.009,0.083,0.012
							c-0.066-0.399-0.134-0.796-0.201-1.191c-0.207-1.211-0.402-2.356-0.555-3.535c-1.159-8.95-0.434-18.008,2.155-26.923
							c3.082-10.612,7.653-19.382,13.976-26.81c6.292-7.391,14.258-12.991,24.355-17.122c7.658-3.133,15.824-5.117,24.269-5.898
							c1.983-0.184,4.005-0.255,5.96-0.325c1.123-0.04,2.245-0.08,3.366-0.14c0.981-0.057,1.609,0.302,2.084,1.187
							c3.246,6.048,5.775,12.653,7.733,20.193c1.981,7.63,2.882,15.175,2.677,22.425c-0.348,12.281-3.976,23.458-10.784,33.22
							c-9.386,13.459-21.873,22.738-37.113,27.578c-0.066,0.021-0.131,0.046-0.2,0.075l2.746,3.644
							c2.818,3.745,5.733,7.617,8.632,11.364c0.794,1.026,0.828,1.797,0.126,2.944c-4.526,7.405-9.019,14.83-13.51,22.255
							l-2.825,4.599c-0.987,0.652-1.947,1.378-2.852,2.159L181.018,151.827z M153.231,121.257l0.493,1.117l1.485,3.496
							c1.703,4.011,3.406,8.023,5.134,12.023c0.184,0.425,0.53,0.839,0.882,1.054c5.819,3.554,11.654,7.082,17.488,10.61
							l2.228,1.347c0.846-0.716,1.737-1.386,2.651-1.993l2.667-4.408c4.492-7.427,8.985-14.853,13.512-22.258
							c0.54-0.884,0.523-1.314-0.08-2.094c-2.903-3.751-5.819-7.625-8.639-11.372l-3.324-4.411l0.706-0.297
							c0.166-0.073,0.303-0.132,0.445-0.177c15.08-4.79,27.436-13.972,36.725-27.292c6.723-9.64,10.305-20.68,10.649-32.812
							c0.203-7.179-0.689-14.653-2.653-22.215c-1.942-7.481-4.451-14.032-7.668-20.027c-0.338-0.63-0.688-0.833-1.383-0.792
							c-1.125,0.061-2.252,0.101-3.38,0.141c-1.944,0.069-3.955,0.141-5.917,0.322c-8.372,0.774-16.464,2.74-24.054,5.845
							c-9.984,4.083-17.856,9.616-24.068,16.914c-6.253,7.345-10.776,16.024-13.827,26.532c-2.56,8.815-3.277,17.771-2.131,26.617
							c0.151,1.164,0.345,2.301,0.55,3.505c0.094,0.553,0.189,1.109,0.28,1.671l0.078,0.478l-0.711-0.063
							c-0.148-0.011-0.271-0.021-0.392-0.042l-3.835-0.637c-4.959-0.823-9.919-1.647-14.874-2.499c-0.633-0.111-0.882,0-1.203,0.537
							c-2.979,4.963-5.98,9.913-8.981,14.863l-8.992,14.86c0.083,0.066,0.159,0.125,0.241,0.175l1.957,1.185
							c6.257,3.789,12.514,7.577,18.787,11.34c0.271,0.163,0.714,0.244,1.154,0.208c4.426-0.341,8.851-0.703,13.275-1.064
							L153.231,121.257z M180.276,144.492l-0.497-0.238c-0.178-0.082-0.357-0.165-0.524-0.266l-2.022-1.221
							c-3.937-2.378-7.874-4.756-11.792-7.164c-0.493-0.303-0.948-0.837-1.188-1.393c-2.671-6.199-5.126-11.974-7.503-17.653
							c-0.218-0.52-0.372-0.613-0.928-0.567c-3.051,0.263-6.103,0.512-9.155,0.762c-3.156,0.258-6.312,0.516-9.468,0.789
							c-1.025,0.087-1.854-0.104-2.695-0.621c-3.495-2.148-7.006-4.27-10.561-6.417l-3.939-2.382l9.862-16.286
							c0.347-0.572,0.696-1.143,1.045-1.713c0.805-1.314,1.638-2.673,2.416-4.029c0.483-0.842,1.013-1.096,1.954-0.935
							c6.466,1.104,12.939,2.174,19.411,3.244l5.039,0.833c-0.044-0.119-0.088-0.238-0.132-0.355
							c-0.23-0.622-0.45-1.215-0.698-1.797c-2.385-5.592-3.396-11.812-3.183-19.576c0.338-12.285,4.19-24.139,11.45-35.232
							c5.65-8.633,13.556-15.107,24.168-19.792c9.046-3.993,18.841-6.189,29.943-6.715c1.064-0.043,1.458,0.533,1.75,1.168
							c3.597,7.801,6.045,15.726,7.275,23.555c1.336,8.51,1.232,16.264-0.318,23.705l0,0c-1.717,8.238-5.361,15.788-11.14,23.079
							c-8.377,10.569-18.946,17.892-31.412,21.764c-1.796,0.558-3.68,0.896-5.503,1.224c-0.841,0.151-1.683,0.302-2.519,0.475
							l-0.651,0.129l7.314,9.694c2.523,3.344,5.047,6.687,7.581,10.022c0.34,0.448,0.634,0.95,0.168,1.713
							c-3.365,5.521-6.715,11.051-10.065,16.581l-3.05,5.035c-0.042,0.068-0.091,0.132-0.155,0.214L180.276,144.492z
							 M156.022,115.229c0.713,0,1.111,0.3,1.419,1.036c2.376,5.677,4.83,11.45,7.5,17.646c0.179,0.416,0.529,0.828,0.892,1.051
							c3.917,2.407,7.853,4.784,11.788,7.161l2.022,1.222c0.13,0.079,0.269,0.143,0.407,0.207c0.007-0.011,0.014-0.021,0.021-0.032
							l3.05-5.035c3.35-5.531,6.7-11.062,10.066-16.583c0.21-0.345,0.165-0.487-0.125-0.869c-2.534-3.336-5.058-6.681-7.582-10.025
							l-8.035-10.65l1.819-0.36c0.841-0.174,1.689-0.326,2.538-0.479c1.8-0.324,3.661-0.658,5.413-1.202
							c12.32-3.827,22.766-11.065,31.047-21.514c5.705-7.198,9.301-14.645,10.994-22.766l0,0c1.532-7.35,1.634-15.016,0.311-23.435
							c-1.236-7.87-3.597-15.51-7.215-23.357c-0.276-0.601-0.495-0.752-1.034-0.733c-11.008,0.521-20.715,2.697-29.676,6.652
							c-10.476,4.625-18.275,11.008-23.843,19.517c-7.183,10.975-10.994,22.698-11.328,34.842
							c-0.211,7.652,0.781,13.773,3.122,19.262c0.253,0.593,0.477,1.198,0.712,1.831c0.111,0.301,0.226,0.609,0.346,0.925
							l0.219,0.574l-0.881-0.095c-0.142-0.015-0.236-0.024-0.329-0.04l-5.087-0.842c-6.474-1.07-12.948-2.141-19.415-3.245
							c-0.631-0.106-0.85-0.001-1.177,0.568c-0.784,1.366-1.619,2.729-2.427,4.048c-0.349,0.57-0.698,1.139-1.043,1.71
							l-9.474,15.644l3.296,1.993c3.556,2.148,7.069,4.271,10.566,6.42c0.705,0.433,1.372,0.585,2.238,0.512
							c3.156-0.273,6.313-0.531,9.471-0.789c3.051-0.249,6.102-0.499,9.151-0.761C155.85,115.233,155.938,115.229,156.022,115.229z"
							/>
					</g>
				</g>
			</g>
			<g>
				<g>
					<path class="st3" d="M163.345,77.993c-0.848,0-1.592-0.618-1.726-1.482c-1.255-8.121-0.7-16.579,1.604-24.462
						c2.276-7.786,6.297-15.136,11.629-21.253c0.634-0.728,1.739-0.804,2.467-0.169c0.728,0.635,0.804,1.739,0.169,2.467
						c-5.002,5.739-8.774,12.633-10.909,19.937c-2.161,7.394-2.681,15.329-1.504,22.947c0.147,0.954-0.507,1.848-1.461,1.995
						C163.523,77.986,163.433,77.993,163.345,77.993z"/>
					<path class="st3" d="M163.345,78.368c-1.054,0-1.936-0.757-2.097-1.8c-1.263-8.174-0.704-16.689,1.615-24.624
						c2.291-7.838,6.339-15.236,11.707-21.395c0.769-0.882,2.113-0.975,2.996-0.206c0.883,0.77,0.975,2.114,0.206,2.997
						c-4.967,5.698-8.712,12.543-10.832,19.795c-2.146,7.343-2.663,15.221-1.494,22.785c0.086,0.561-0.05,1.121-0.386,1.579
						c-0.335,0.458-0.829,0.758-1.389,0.844C163.561,78.36,163.452,78.368,163.345,78.368z M176.171,30.572
						c-0.383,0-0.765,0.159-1.036,0.47c-5.297,6.077-9.292,13.378-11.552,21.112c-2.288,7.831-2.839,16.233-1.593,24.3
						c0.113,0.733,0.813,1.265,1.568,1.148c0.361-0.056,0.681-0.25,0.897-0.546c0.217-0.296,0.306-0.659,0.25-1.021
						c-1.186-7.671-0.662-15.662,1.515-23.109c2.15-7.356,5.949-14.299,10.986-20.078c0.498-0.571,0.438-1.441-0.133-1.938
						C176.813,30.683,176.491,30.572,176.171,30.572z"/>
				</g>
			</g>
			<g>
				<g>
					<path class="st3" d="M164.675,81.212c-2.233,0-2.236,3.47,0,3.47C166.908,84.682,166.911,81.212,164.675,81.212z"/>
					<path class="st3" d="M164.675,85.058c-1.347,0-2.051-1.061-2.051-2.109c0-1.049,0.704-2.111,2.051-2.111
						s2.051,1.061,2.051,2.109C166.726,83.996,166.021,85.058,164.675,85.058z M164.675,81.587c-0.899,0-1.301,0.684-1.301,1.361
						c0,0.359,0.12,0.705,0.328,0.948c0.234,0.273,0.562,0.411,0.973,0.411c0.899,0,1.301-0.684,1.301-1.361
						C165.976,82.27,165.574,81.587,164.675,81.587z"/>
				</g>
			</g>
		</g>
	</g>
	<g>
		<path class="st2" d="M16.038,190.238c0,0.4-0.24,0.64-0.64,0.64h-3.999c-0.44,0-0.64-0.24-0.64-0.64v-3.199
			c0-1.04-0.56-1.6-1.6-1.6h-2.08c-1.08,0-1.6,0.56-1.6,1.6v18.237c0,1.08,0.56,1.6,1.6,1.6h2.08c1.04,0,1.6-0.52,1.6-1.6v-3.199
			c0-0.4,0.2-0.64,0.64-0.64h3.999c0.4,0,0.64,0.24,0.64,0.64v4.319c0,3.759-2.04,5.759-5.759,5.759H5.799
			c-3.759,0-5.799-2-5.799-5.759v-20.477c0-3.76,2.04-5.759,5.799-5.759h4.479c3.719,0,5.759,2,5.759,5.759V190.238z"/>
		<path class="st2" d="M20.04,180.8c0-0.4,0.2-0.64,0.64-0.64h9.598c3.76,0,5.759,2.04,5.759,5.799v20.437
			c0,3.759-2,5.759-5.759,5.759H20.68c-0.44,0-0.64-0.2-0.64-0.64V180.8z M29.158,206.875c1.04,0,1.6-0.52,1.6-1.6v-18.197
			c0-1.08-0.56-1.64-1.6-1.64h-3.679v21.436H29.158z"/>
		<path class="st2" d="M50.278,184.159c3.76,0,5.759,2,5.759,5.759v2.64c0,0.4-0.2,0.64-0.64,0.64h-4.039
			c-0.4,0-0.64-0.24-0.64-0.64v-1.68c0-1.04-0.52-1.6-1.6-1.6h-2.2c-1,0-1.6,0.56-1.6,1.6v3.399l9.678,3.12
			c0.68,0.24,1.04,0.72,1.04,1.479v7.519c0,3.759-2,5.759-5.759,5.759h-4.479c-3.719,0-5.759-2-5.759-5.759v-2.6
			c0-0.44,0.24-0.64,0.64-0.64h4.039c0.44,0,0.64,0.2,0.64,0.64v1.68c0,1.08,0.6,1.6,1.6,1.6h2.16c1.04,0,1.6-0.52,1.6-1.6v-4.04
			l-9.598-3.12c-0.72-0.24-1.08-0.72-1.08-1.479v-6.919c0-3.759,2.04-5.759,5.759-5.759H50.278z"/>
		<path class="st2" d="M60.04,207.675c0-0.52,0.28-0.8,0.8-0.8h3.64c0.52,0,0.8,0.28,0.8,0.8v3.919c0,0.4-0.08,0.681-0.28,1
			l-2.16,3.279c-0.12,0.201-0.24,0.281-0.48,0.281h-1.8c-0.32,0-0.44-0.201-0.32-0.48l1.6-3.52h-1c-0.52,0-0.8-0.279-0.8-0.8
			V207.675z"/>
		<path class="st2" d="M84.719,206.875h9.518c0.44,0,0.64,0.24,0.64,0.641v3.999c0,0.439-0.2,0.64-0.64,0.64H79.919
			c-0.4,0-0.64-0.2-0.64-0.64V180.8c0-0.4,0.24-0.64,0.64-0.64h4.159c0.44,0,0.64,0.24,0.64,0.64V206.875z"/>
		<path class="st2" d="M98.879,180.8c0-0.4,0.24-0.64,0.64-0.64h9.598c3.759,0,5.759,2,5.759,5.759v9.758
			c0,3.719-2,5.759-5.759,5.759h-4.799v10.079c0,0.399-0.2,0.64-0.64,0.64h-4.159c-0.4,0-0.64-0.24-0.64-0.64V180.8z
			 M107.837,196.157c1.08,0,1.6-0.6,1.6-1.6v-7.519c0-1.04-0.52-1.6-1.6-1.6h-3.519v10.718H107.837z"/>
		<path class="st2" d="M129.117,184.159c3.759,0,5.759,2,5.759,5.759v2.64c0,0.4-0.2,0.64-0.64,0.64h-4.039
			c-0.4,0-0.64-0.24-0.64-0.64v-1.68c0-1.04-0.52-1.6-1.6-1.6h-2.2c-1,0-1.6,0.56-1.6,1.6v3.399l9.678,3.12
			c0.68,0.24,1.04,0.72,1.04,1.479v7.519c0,3.759-2,5.759-5.759,5.759h-4.479c-3.719,0-5.759-2-5.759-5.759v-2.6
			c0-0.44,0.24-0.64,0.64-0.64h4.039c0.44,0,0.64,0.2,0.64,0.64v1.68c0,1.08,0.6,1.6,1.6,1.6h2.16c1.04,0,1.6-0.52,1.6-1.6v-4.04
			l-9.598-3.12c-0.72-0.24-1.08-0.72-1.08-1.479v-6.919c0-3.759,2.04-5.759,5.759-5.759H129.117z"/>
		<path class="st2" d="M138.879,207.675c0-0.52,0.28-0.8,0.8-0.8h3.64c0.52,0,0.8,0.28,0.8,0.8v3.919c0,0.4-0.08,0.681-0.28,1
			l-2.16,3.279c-0.12,0.201-0.24,0.281-0.48,0.281h-1.8c-0.32,0-0.44-0.201-0.32-0.48l1.6-3.52h-1c-0.52,0-0.8-0.279-0.8-0.8
			V207.675z"/>
		<path class="st2" d="M158.118,180.8c0-0.4,0.2-0.64,0.64-0.64h9.598c3.759,0,5.759,2.04,5.759,5.799v20.437
			c0,3.759-2,5.759-5.759,5.759h-9.598c-0.44,0-0.64-0.2-0.64-0.64V180.8z M167.237,206.875c1.04,0,1.6-0.52,1.6-1.6v-18.197
			c0-1.08-0.56-1.64-1.6-1.64h-3.679v21.436H167.237z"/>
		<path class="st2" d="M195.076,180.16c0.6,0,0.84,0.32,0.72,0.88l-6.759,30.395c-0.12,0.479-0.4,0.72-0.88,0.72h-4
			c-0.48,0-0.76-0.24-0.88-0.72l-6.719-30.395c-0.12-0.56,0.12-0.88,0.72-0.88h3.799c0.48,0,0.76,0.24,0.88,0.72l4.2,21.437
			l4.239-21.437c0.12-0.48,0.4-0.72,0.88-0.72H195.076z"/>
		<path class="st2" d="M199.038,180.8c0-0.4,0.2-0.64,0.64-0.64h9.598c3.759,0,5.759,2.04,5.759,5.799v20.437
			c0,3.759-2,5.759-5.759,5.759h-9.598c-0.44,0-0.64-0.2-0.64-0.64V180.8z M208.157,206.875c1.04,0,1.6-0.52,1.6-1.6v-18.197
			c0-1.08-0.56-1.64-1.6-1.64h-3.679v21.436H208.157z"/>
		<path class="st2" d="M229.276,184.159c3.759,0,5.759,2,5.759,5.759v2.64c0,0.4-0.2,0.64-0.64,0.64h-4.039
			c-0.4,0-0.64-0.24-0.64-0.64v-1.68c0-1.04-0.52-1.6-1.6-1.6h-2.2c-1,0-1.6,0.56-1.6,1.6v3.399l9.678,3.12
			c0.68,0.24,1.04,0.72,1.04,1.479v7.519c0,3.759-2,5.759-5.759,5.759h-4.479c-3.719,0-5.759-2-5.759-5.759v-2.6
			c0-0.44,0.24-0.64,0.64-0.64h4.039c0.44,0,0.64,0.2,0.64,0.64v1.68c0,1.08,0.6,1.6,1.6,1.6h2.16c1.04,0,1.6-0.52,1.6-1.6v-4.04
			l-9.598-3.12c-0.72-0.24-1.08-0.72-1.08-1.479v-6.919c0-3.759,2.04-5.759,5.759-5.759H229.276z"/>
		<path class="st2" d="M239.038,207.675c0-0.52,0.28-0.8,0.8-0.8h3.64c0.52,0,0.8,0.28,0.8,0.8v3.919c0,0.4-0.08,0.681-0.28,1
			l-2.16,3.279c-0.12,0.201-0.24,0.281-0.48,0.281h-1.8c-0.32,0-0.44-0.201-0.32-0.48l1.6-3.52h-1c-0.52,0-0.8-0.279-0.8-0.8
			V207.675z"/>
		<path class="st2" d="M274.275,180.16c0.64,0,0.8,0.4,0.6,0.96l-9.958,25.755h8.798c0.4,0,0.64,0.2,0.64,0.641v3.959
			c0,0.4-0.24,0.64-0.64,0.68h-15.557c-0.64,0-0.84-0.4-0.6-0.96l9.958-25.715h-8.279c-0.4,0-0.64-0.24-0.64-0.64v-4
			c0-0.44,0.24-0.64,0.64-0.68H274.275z"/>
		<path class="st2" d="M282.156,180.16c0.4,0,0.64,0.24,0.64,0.64v30.715c0,0.399-0.24,0.64-0.64,0.64h-4.159
			c-0.44,0-0.64-0.24-0.64-0.64V180.8c0-0.4,0.2-0.64,0.64-0.64H282.156z"/>
		<path class="st2" d="M303.234,180.16c0.4,0,0.64,0.24,0.64,0.64v30.715c0,0.399-0.24,0.64-0.64,0.64h-3.959
			c-0.36,0-0.6-0.16-0.72-0.52l-6.119-17.078h-0.2v16.958c0,0.399-0.2,0.64-0.64,0.64h-4.159c-0.4,0-0.64-0.24-0.64-0.64V180.8
			c0-0.4,0.24-0.64,0.64-0.64h3.959c0.36,0,0.6,0.16,0.72,0.52l6.079,16.997h0.24V180.8c0-0.4,0.2-0.64,0.64-0.64H303.234z"/>
		<path class="st2" d="M323.833,184.799c0,0.4-0.16,0.68-0.64,0.68h-9.999v7.999h7.639c0.4,0,0.641,0.24,0.641,0.68v3.959
			c0,0.44-0.24,0.68-0.641,0.68h-7.639v8.079h9.999c0.479,0,0.64,0.2,0.64,0.641v3.999c0,0.399-0.16,0.64-0.64,0.64h-14.718
			c-0.36,0-0.6-0.24-0.6-0.64V180.8c0-0.4,0.239-0.64,0.6-0.64h14.718c0.479,0,0.64,0.24,0.64,0.64V184.799z"/>
		<path class="st2" d="M336.875,180.16c3.759,0,5.759,2,5.759,5.759v4.239c0,0.4-0.2,0.64-0.64,0.64h-4.159
			c-0.4,0-0.641-0.24-0.641-0.64v-3.12c0-1.04-0.52-1.6-1.6-1.6h-1.92c-0.999,0-1.6,0.56-1.6,1.6v5.519l9.519,3.12
			c0.68,0.28,1.04,0.72,1.04,1.479v9.239c0,3.759-2,5.759-5.759,5.759h-4.479c-3.72,0-5.759-2-5.759-5.759v-4.2
			c0-0.44,0.239-0.64,0.64-0.64h4.159c0.44,0,0.64,0.2,0.64,0.64v3.08c0,1.08,0.601,1.6,1.6,1.6h1.92c1.04,0,1.6-0.52,1.6-1.6
			v-5.319l-9.479-3.12c-0.72-0.24-1.079-0.72-1.079-1.48v-9.438c0-3.76,2.039-5.759,5.759-5.759H336.875z"/>
		<path class="st2" d="M346.637,207.675c0-0.52,0.279-0.8,0.8-0.8h3.639c0.521,0,0.801,0.28,0.801,0.8v3.919
			c0,0.4-0.08,0.681-0.28,1l-2.16,3.279c-0.119,0.201-0.239,0.281-0.479,0.281h-1.8c-0.32,0-0.439-0.201-0.32-0.48l1.601-3.52h-1
			c-0.521,0-0.8-0.279-0.8-0.8V207.675z"/>
		<path class="st2" d="M381.914,193.277c0,1.48-1.08,2.6-2.52,2.84v0.08c1.439,0.24,2.52,1.36,2.52,2.84v7.359
			c0,3.759-2.04,5.759-5.799,5.759h-9.599c-0.4,0-0.64-0.24-0.64-0.64V180.8c0-0.44,0.239-0.64,0.64-0.64h9.599
			c3.759,0,5.799,2,5.799,5.759V193.277z M376.594,187.038c0-1.04-0.52-1.6-1.6-1.6h-3.64v8.079h3.64c1.04,0,1.6-0.56,1.6-1.56
			V187.038z M376.594,200.396c0-1.04-0.52-1.6-1.6-1.6h-3.64v8.079h3.64c1.04,0,1.6-0.52,1.6-1.6V200.396z"/>
		<path class="st2" d="M385.917,185.919c0-3.76,1.999-5.759,5.759-5.759h4.479c3.759,0,5.759,2,5.759,5.759v20.477
			c0,3.759-2,5.759-5.759,5.759h-4.479c-3.76,0-5.759-2-5.759-5.759V185.919z M395.155,206.995c1.04,0,1.6-0.52,1.6-1.6v-18.477
			c0-1.04-0.56-1.6-1.6-1.6h-2.319c-1.04,0-1.601,0.56-1.601,1.6v18.477c0,1.08,0.561,1.6,1.601,1.6H395.155z"/>
		<path class="st2" d="M405.917,185.919c0-3.76,1.999-5.759,5.759-5.759h4.479c3.759,0,5.759,2,5.759,5.759v20.477
			c0,3.759-2,5.759-5.759,5.759h-4.479c-3.76,0-5.759-2-5.759-5.759V185.919z M415.155,206.995c1.04,0,1.6-0.52,1.6-1.6v-18.477
			c0-1.04-0.56-1.6-1.6-1.6h-2.319c-1.04,0-1.601,0.56-1.601,1.6v18.477c0,1.08,0.561,1.6,1.601,1.6H415.155z"/>
		<path class="st2" d="M438.794,212.154c-0.48,0-0.761-0.2-0.92-0.6l-5.039-11.878l-1.48,2.84v8.838c0,0.521-0.279,0.8-0.8,0.8
			h-3.839c-0.521,0-0.8-0.279-0.8-0.8v-30.395c0-0.52,0.279-0.8,0.8-0.8h3.839c0.521,0,0.8,0.28,0.8,0.8v12.398l6.159-12.598
			c0.2-0.4,0.479-0.6,0.92-0.6h4.199c0.6,0,0.84,0.4,0.56,0.96l-6.799,13.958l7.239,16.157c0.28,0.52,0.04,0.92-0.6,0.92H438.794z"
			/>
		<path class="st2" d="M457.594,180.16c3.759,0,5.759,2,5.759,5.759v4.239c0,0.4-0.2,0.64-0.64,0.64h-4.159
			c-0.4,0-0.641-0.24-0.641-0.64v-3.12c0-1.04-0.52-1.6-1.6-1.6h-1.92c-0.999,0-1.6,0.56-1.6,1.6v5.519l9.519,3.12
			c0.68,0.28,1.04,0.72,1.04,1.479v9.239c0,3.759-2,5.759-5.759,5.759h-4.479c-3.72,0-5.759-2-5.759-5.759v-4.2
			c0-0.44,0.239-0.64,0.64-0.64h4.159c0.44,0,0.64,0.2,0.64,0.64v3.08c0,1.08,0.601,1.6,1.6,1.6h1.92c1.04,0,1.6-0.52,1.6-1.6
			v-5.319l-9.479-3.12c-0.72-0.24-1.079-0.72-1.079-1.48v-9.438c0-3.76,2.039-5.759,5.759-5.759H457.594z"/>
		<path class="st2" d="M467.356,207.675c0-0.52,0.279-0.8,0.8-0.8h3.639c0.521,0,0.801,0.28,0.801,0.8v3.919
			c0,0.4-0.08,0.681-0.28,1l-2.16,3.279c-0.119,0.201-0.239,0.281-0.479,0.281h-1.8c-0.32,0-0.439-0.201-0.32-0.48l1.601-3.52h-1
			c-0.521,0-0.8-0.279-0.8-0.8V207.675z"/>
		<path class="st2" d="M499.632,180.16c0.521,0,0.8,0.28,0.8,0.8v3.679c0,0.52-0.279,0.8-0.8,0.8h-6.118
			c-1.08,0-1.601,0.56-1.601,1.6v4.519c0,1,0.561,1.56,1.601,1.56h3.719v-1.6c0-0.52,0.28-0.8,0.8-0.8h3.8c0.52,0,0.8,0.28,0.8,0.8
			v1.6h1.68c0.52,0,0.8,0.28,0.8,0.8v3.679c0,0.52-0.28,0.8-0.8,0.8h-1.68v12.958c0,0.521-0.28,0.8-0.8,0.8h-9.438
			c-3.76,0-5.799-2-5.799-5.759v-7.759c0-1.48,1.079-2.6,2.52-2.84v-0.08c-1.44-0.24-2.52-1.36-2.52-2.84v-6.958
			c0-3.76,2.039-5.759,5.799-5.759H499.632z M493.514,198.396c-1.08,0-1.601,0.56-1.601,1.6v5.279c0,1.08,0.561,1.6,1.601,1.6h3.719
			v-8.479H493.514z"/>
		<path class="st2" d="M541.111,180.16c0.52,0,0.8,0.28,0.8,0.8v30.395c0,0.521-0.28,0.8-0.8,0.8h-3.72c-0.52,0-0.8-0.279-0.8-0.8
			v-17.997h-0.279l-3.96,18.077c-0.12,0.479-0.399,0.72-0.88,0.72h-1.96c-0.479,0-0.76-0.24-0.88-0.72l-3.959-18.077h-0.28v17.997
			c0,0.521-0.279,0.8-0.8,0.8h-3.679c-0.521,0-0.8-0.279-0.8-0.8v-30.395c0-0.52,0.279-0.8,0.8-0.8h5.279
			c0.479,0,0.76,0.24,0.88,0.72l4.438,19.917l4.439-19.917c0.12-0.48,0.4-0.72,0.88-0.72H541.111z"/>
		<path class="st2" d="M545.915,185.919c0-3.76,1.999-5.759,5.759-5.759h4.479c3.759,0,5.759,2,5.759,5.759v20.477
			c0,3.759-2,5.759-5.759,5.759h-4.479c-3.76,0-5.759-2-5.759-5.759V185.919z M555.153,206.995c1.04,0,1.6-0.52,1.6-1.6v-18.477
			c0-1.04-0.56-1.6-1.6-1.6h-2.319c-1.04,0-1.601,0.56-1.601,1.6v18.477c0,1.08,0.561,1.6,1.601,1.6H555.153z"/>
		<path class="st2" d="M582.351,195.677c0,2.679-0.999,4.439-2.919,5.279l2.76,10.479c0.119,0.479-0.12,0.72-0.561,0.72h-4.159
			c-0.399,0-0.6-0.2-0.68-0.561l-2.68-10.158h-2.76v10.079c0,0.399-0.239,0.64-0.64,0.64h-4.159c-0.4,0-0.64-0.24-0.64-0.64V180.8
			c0-0.4,0.239-0.64,0.64-0.64h10.038c3.76,0,5.759,2,5.759,5.759V195.677z M575.313,196.157c1.039,0,1.6-0.56,1.6-1.6v-7.519
			c0-1.04-0.561-1.6-1.6-1.6h-3.96v10.718H575.313z"/>
		<path class="st2" d="M602.311,184.799c0,0.4-0.16,0.68-0.64,0.68h-9.999v7.999h7.639c0.4,0,0.641,0.24,0.641,0.68v3.959
			c0,0.44-0.24,0.68-0.641,0.68h-7.639v8.079h9.999c0.479,0,0.64,0.2,0.64,0.641v3.999c0,0.399-0.16,0.64-0.64,0.64h-14.718
			c-0.36,0-0.6-0.24-0.6-0.64V180.8c0-0.4,0.239-0.64,0.6-0.64h14.718c0.479,0,0.64,0.24,0.64,0.64V184.799z"/>
	</g>
</g>
</svg>